<?xml version="1.0" encoding="UTF-8" standalone="no"?>
<!-- Created with Inkscape (http://www.inkscape.org/) -->

<svg
   xmlns:dc="http://purl.org/dc/elements/1.1/"
   xmlns:cc="http://creativecommons.org/ns#"
   xmlns:rdf="http://www.w3.org/1999/02/22-rdf-syntax-ns#"
   xmlns:svg="http://www.w3.org/2000/svg"
   xmlns="http://www.w3.org/2000/svg"
   xmlns:xlink="http://www.w3.org/1999/xlink"
   xmlns:sodipodi="http://sodipodi.sourceforge.net/DTD/sodipodi-0.dtd"
   xmlns:inkscape="http://www.inkscape.org/namespaces/inkscape"
   width="16"
   height="16"
   id="svg2"
   version="1.1"
   inkscape:version="0.48.0 r9654"
   sodipodi:docname="unknown_obj.svg">
  <defs
     id="defs4">
    <linearGradient
       inkscape:collect="always"
       id="linearGradient4904">
      <stop
         style="stop-color:#e3ecf8;stop-opacity:1"
         offset="0"
         id="stop4906" />
      <stop
         style="stop-color:#f8f9fc;stop-opacity:1"
         offset="1"
         id="stop4908" />
    </linearGradient>
    <linearGradient
       inkscape:collect="always"
       id="linearGradient4896">
      <stop
         style="stop-color:#b4903d;stop-opacity:1;"
         offset="0"
         id="stop4898" />
      <stop
         style="stop-color:#7b7450;stop-opacity:1"
         offset="1"
         id="stop4900" />
    </linearGradient>
    <linearGradient
       inkscape:collect="always"
       xlink:href="#linearGradient4896"
       id="linearGradient4902"
       x1="41.186394"
       y1="1050.6387"
       x2="41.186394"
       y2="1064.011"
       gradientUnits="userSpaceOnUse"
       gradientTransform="translate(-20,0)" />
    <linearGradient
       inkscape:collect="always"
       xlink:href="#linearGradient4904"
       id="linearGradient4910"
       x1="31.078033"
       y1="1063.3684"
       x2="31.078033"
       y2="1051.3458"
       gradientUnits="userSpaceOnUse"
       gradientTransform="translate(-20,0)" />
  </defs>
  <sodipodi:namedview
     id="base"
     pagecolor="#ffffff"
     bordercolor="#666666"
     borderopacity="1.0"
     inkscape:pageopacity="0.0"
     inkscape:pageshadow="2"
     inkscape:zoom="11.313708"
     inkscape:cx="-3.2651106"
     inkscape:cy="17.732293"
     inkscape:document-units="px"
     inkscape:current-layer="g8159"
     showgrid="true"
     inkscape:window-width="1171"
     inkscape:window-height="959"
     inkscape:window-x="45"
     inkscape:window-y="104"
     inkscape:window-maximized="0"
     showguides="true"
     inkscape:guide-bbox="true"
     inkscape:snap-global="false">
    <inkscape:grid
       type="xygrid"
       id="grid4112"
       empspacing="5"
       visible="true"
       enabled="true"
       snapvisiblegridlinesonly="true" />
  </sodipodi:namedview>
  <metadata
     id="metadata7">
    <rdf:RDF>
      <cc:Work
         rdf:about="">
        <dc:format>image/svg+xml</dc:format>
        <dc:type
           rdf:resource="http://purl.org/dc/dcmitype/StillImage" />
        <dc:title />
      </cc:Work>
    </rdf:RDF>
  </metadata>
  <g
     inkscape:label="Layer 1"
     inkscape:groupmode="layer"
     id="layer1"
     style="display:inline"
     transform="translate(0,-1036.3622)">
    <g
       style="display:inline"
       id="g8159"
       transform="translate(-8.2201163,-12.904699)">
      <rect
         style="fill:url(#linearGradient4910);fill-opacity:1;stroke:url(#linearGradient4902);stroke-width:1;stroke-miterlimit:4;stroke-opacity:1;stroke-dasharray:none"
         id="rect4126"
         width="10.988725"
         height="12.987725"
         x="10.72624"
         y="1050.7739" />
      <g
         id="g4102"
         transform="matrix(0.57156355,0,0,0.57156355,4.732713,456.08117)">
        <path
           sodipodi:nodetypes="csccccccccsccsccccc"
           inkscape:connector-curvature="0"
           id="text4882"
           d="m 20.279131,1044.9761 c -1.426102,10e-5 -2.56467,0.3966 -3.433424,1.1943 -0.868758,0.7977 -1.321534,1.9026 -1.37337,3.2841 l 2.358613,0.2986 c 0.07755,-1.7081 0.859346,-2.5378 2.298902,-2.5378 0.60937,0 1.103814,0.1559 1.492793,0.5076 0.388965,0.3517 0.567253,0.8034 0.567261,1.3435 -8e-6,0.5025 -0.174161,0.9368 -0.537405,1.3136 -0.194296,0.2009 -0.58073,0.5017 -1.164379,0.8659 -0.531429,0.3266 -0.876392,0.6994 -1.044955,1.1643 -0.15591,0.3895 -0.238852,0.9876 -0.238847,1.7914 l 0,1.0748 2.179478,0 0,-0.6867 c -7e-6,-0.7912 0.340821,-1.3987 1.015099,-1.851 0.882004,-0.603 1.484063,-1.1382 1.821208,-1.5525 0.466518,-0.603 0.71653,-1.33 0.71654,-2.2094 -10e-6,-1.2059 -0.482839,-2.2021 -1.403225,-2.9557 -0.882021,-0.7034 -1.970648,-1.0449 -3.254289,-1.045 z"
           style="font-size:20.03678703px;font-style:normal;font-variant:normal;font-weight:bold;font-stretch:normal;text-align:start;line-height:125%;letter-spacing:0px;word-spacing:0px;writing-mode:lr-tb;text-anchor:start;fill:#286296;fill-opacity:1;stroke:none;font-family:Reznor;-inkscape-font-specification:Reznor Bold" />
        <path
           transform="matrix(2.5622525,0,0,3.5344747,-10.42135,999.36901)"
           d="m 12.575997,16.531185 c 0,0.21967 -0.288136,0.397748 -0.64357,0.397748 -0.355433,0 -0.643569,-0.178078 -0.643569,-0.397748 0,-0.21967 0.288136,-0.397747 0.643569,-0.397747 0.355434,0 0.64357,0.178077 0.64357,0.397747 z"
           sodipodi:ry="0.39774758"
           sodipodi:rx="0.64356911"
           sodipodi:cy="16.531185"
           sodipodi:cx="11.932427"
           id="path4908-1"
           style="fill:#286296;fill-opacity:1;stroke:none;display:inline"
           sodipodi:type="arc" />
      </g>
    </g>
  </g>
</svg>
