<?xml version="1.0" encoding="UTF-8"?>
<!DOCTYPE svg PUBLIC "-//W3C//DTD SVG 1.1//EN" "http://www.w3.org/Graphics/SVG/1.1/DTD/svg11.dtd">
<svg version="1.1" xmlns="http://www.w3.org/2000/svg" xmlns:xlink="http://www.w3.org/1999/xlink" x="0" y="0" width="612" height="792" viewBox="0, 0, 612, 792">
  <defs>
    <linearGradient id="Gradient_1" gradientUnits="userSpaceOnUse" x1="269.548" y1="362.532" x2="269.548" y2="512.505" gradientTransform="matrix(1, 0, 0, -1, 0, 793)">
      <stop offset="0.303" stop-color="#473788"/>
      <stop offset="0.872" stop-color="#2C2255"/>
    </linearGradient>
    <linearGradient id="Gradient_2" gradientUnits="userSpaceOnUse" x1="269.548" y1="362.53" x2="269.548" y2="512.503" gradientTransform="matrix(1, 0, 0, -1, 0, 793)">
      <stop offset="0.303" stop-color="#473788"/>
      <stop offset="0.872" stop-color="#2C2255"/>
    </linearGradient>
    <linearGradient id="Gradient_3" gradientUnits="userSpaceOnUse" x1="269.548" y1="362.534" x2="269.548" y2="512.499" gradientTransform="matrix(1, 0, 0, -1, 0, 793)">
      <stop offset="0.303" stop-color="#473788"/>
      <stop offset="0.863" stop-color="#2C2255"/>
    </linearGradient>
    <linearGradient id="Gradient_4" gradientUnits="userSpaceOnUse" x1="307.831" y1="445.684" x2="307.831" y2="371.242">
      <stop offset="0" stop-color="#3F2E7A"/>
      <stop offset="0.571" stop-color="#2C2255"/>
    </linearGradient>
  </defs>
  <g id="Layer_1">
    <path d="M207.914,345.97 L173.811,345.97 C178.327,361.459 186.706,375.341 198.973,387.61 C218.529,407.169 242.045,416.935 269.545,416.935 C275.042,416.935 280.368,416.525 285.541,415.745 C306.255,412.619 324.389,403.254 339.928,387.61 C352.274,375.345 360.712,361.459 365.262,345.97 L351.423,345.97 L331.186,345.97 L207.914,345.97 z" fill="#2C2255"/>
    <g>
      <path d="M189.109,299.651 L171.294,299.651 C170.642,303.565 170.198,307.561 169.997,311.659 L191.17,311.659 L201.792,311.659 L355.105,311.659 L369.099,311.659 C368.896,307.561 368.452,303.565 367.794,299.651" fill="#2C2255"/>
      <path d="M169.997,322.81 C170.198,326.91 170.64,330.906 171.294,334.819 L189.816,334.819 L203.855,334.819 L353.855,334.819 L367.798,334.819 C368.454,330.906 368.902,326.91 369.105,322.81" fill="#2C2255"/>
    </g>
    <path d="M365.266,288.498 C360.72,272.966 352.28,259.018 339.928,246.664 C324.43,231.166 306.346,221.869 285.7,218.74 C280.478,217.948 275.099,217.533 269.545,217.533 C242.045,217.533 218.527,227.246 198.973,246.664 C186.702,259.018 178.319,272.966 173.805,288.498" fill="#2C2255"/>
    <path d="M164.076,317.238 C164.076,264.642 203.578,220.94 254.966,213.253 C253.691,213.207 252.41,213.156 251.123,213.156 C193.456,213.156 146.703,259.756 146.703,317.238 C146.703,374.722 193.453,421.32 251.123,421.32 C252.414,421.32 253.695,421.271 254.974,421.224 C203.578,413.537 164.076,369.836 164.076,317.238 z" fill="#F7941E"/>
    <g>
      <path d="M337.304,311.657 C336.97,307.541 336.278,303.527 335.243,299.649 L203.855,299.649 C202.82,303.525 202.126,307.539 201.792,311.657 L337.304,311.657 z" fill="url(#Gradient_1)"/>
      <path d="M337.304,322.81 L201.794,322.81 C202.128,326.926 202.818,330.941 203.855,334.819 L335.245,334.819 C336.28,330.941 336.97,326.926 337.304,322.81 z" fill="url(#Gradient_2)"/>
      <path d="M269.549,385.239 C296.835,385.239 320.355,369.164 331.186,345.97 L207.912,345.97 C218.743,369.164 242.263,385.239 269.549,385.239 z" fill="url(#Gradient_3)"/>
    </g>
    <g>
      <path d="M191.751,322.81 L201.698,322.81 L337.559,322.81 L355.407,322.81 L368.965,322.81 C369.059,321.036 369.112,319.25 369.112,317.452 C369.112,315.506 369.04,313.578 368.93,311.657 L355.405,311.657 L337.557,311.657 L201.696,311.657 L191.046,311.657 L169.997,311.657 C169.887,313.576 169.815,315.506 169.815,317.452 C169.815,319.25 169.868,321.036 169.962,322.81 L191.751,322.81 z" fill="#FFFFFF"/>
      <path d="M207.515,288.498 L173.803,288.498 C172.695,292.129 171.98,295.854 171.294,299.651 L188.657,299.651 L203.441,299.651 L335.174,299.651 L353.83,299.651 L367.164,299.651 C366.476,295.856 365.59,292.131 364.484,288.498" fill="#FFFFFF"/>
      <path d="M354.358,334.817 L335.701,334.817 L203.971,334.817 L189.893,334.817 L171.292,334.817 C171.96,338.611 172.72,342.334 173.809,345.97 L208.04,345.97 L331.632,345.97 L351.922,345.97 L365.136,345.97 C366.224,342.336 367.101,338.613 367.771,334.817 L354.358,334.817 z" fill="#FFFFFF"/>
    </g>
  </g>
  <g id="Layer_3">
    <path d="M307.79,354.67 C325.201,354.533 342.48,357.009 359.225,361.698 C338.611,400.83 301.544,422.526 257.695,423.604 C238.638,423.71 220.138,418.772 203.341,409.909 L203.274,408.549 C203.274,378.793 250.068,354.67 307.79,354.67 z" fill="#FFFFFF"/>
    <g>
      <path d="M192.776,291.154 z" fill="#FFFFFF"/>
      <path d="M192.776,291.154 z" fill-opacity="0" stroke="#FFFFFF" stroke-width="5"/>
    </g>
  </g>
  <g id="Layer_2">
    <g>
      <path d="M307.831,456.536 C362.284,456.536 406.429,434.964 406.429,408.353 C406.429,381.743 362.284,360.17 307.831,360.17 C253.377,360.17 209.233,381.743 209.233,408.353 C209.233,434.964 253.377,456.536 307.831,456.536" fill="#2C2255"/>
      <path d="M307.831,445.684 C261.059,445.684 223.143,429.019 223.143,408.463 C223.143,387.906 261.059,371.242 307.831,371.242 C354.603,371.242 392.519,387.906 392.519,408.463 C392.519,429.019 354.603,445.684 307.831,445.684 z" fill="url(#Gradient_4)"/>
      <path d="M266.395,393.817 C270.868,393.817 273.849,394.63 275.339,396.259 C276.828,397.887 277.183,400.681 276.404,404.641 C275.589,408.765 274.022,411.709 271.699,413.472 C269.376,415.236 265.84,416.117 261.094,416.117 L253.934,416.117 L258.329,393.817 L266.395,393.817 z M237.712,438.692 L249.484,438.692 L252.277,424.525 L262.36,424.525 C266.81,424.525 270.47,424.066 273.343,423.143 C276.217,422.222 278.828,420.677 281.178,418.507 C283.151,416.72 284.747,414.748 285.97,412.591 C287.191,410.436 288.058,408.057 288.571,405.455 C289.816,399.139 288.876,394.219 285.754,390.695 C282.631,387.17 277.663,385.408 270.853,385.408 L248.216,385.408 L237.712,438.692" fill="#FFFFFF"/>
      <path d="M297.217,371.242 L308.896,371.242 L306.104,385.408 L316.509,385.408 C323.055,385.408 327.571,386.535 330.057,388.785 C332.542,391.037 333.287,394.686 332.293,399.73 L327.406,424.525 L315.541,424.525 L320.187,400.95 C320.716,398.268 320.522,396.439 319.604,395.463 C318.686,394.488 316.732,393.999 313.744,393.999 L304.409,393.999 L298.393,424.525 L286.713,424.525 L297.217,371.242" fill="#FFFFFF"/>
      <path d="M358.279,393.817 C362.752,393.817 365.732,394.63 367.223,396.259 C368.712,397.887 369.067,400.681 368.287,404.641 C367.474,408.765 365.907,411.709 363.583,413.472 C361.26,415.236 357.725,416.117 352.979,416.117 L345.818,416.117 L350.214,393.817 L358.279,393.817 z M329.597,438.692 L341.369,438.692 L344.161,424.525 L354.244,424.525 C358.694,424.525 362.354,424.066 365.227,423.143 C368.101,422.222 370.712,420.677 373.063,418.507 C375.035,416.72 376.631,414.748 377.854,412.591 C379.075,410.436 379.942,408.057 380.455,405.455 C381.701,399.139 380.761,394.219 377.638,390.695 C374.515,387.17 369.548,385.408 362.737,385.408 L340.1,385.408 L329.597,438.692" fill="#FFFFFF"/>
    </g>
  </g>
</svg>
