<?xml version="1.0" encoding="UTF-8" standalone="no"?>
<!-- Created with Inkscape (http://www.inkscape.org/) -->

<svg
   xmlns:dc="http://purl.org/dc/elements/1.1/"
   xmlns:cc="http://creativecommons.org/ns#"
   xmlns:rdf="http://www.w3.org/1999/02/22-rdf-syntax-ns#"
   xmlns:svg="http://www.w3.org/2000/svg"
   xmlns="http://www.w3.org/2000/svg"
   xmlns:xlink="http://www.w3.org/1999/xlink"
   xmlns:sodipodi="http://sodipodi.sourceforge.net/DTD/sodipodi-0.dtd"
   xmlns:inkscape="http://www.inkscape.org/namespaces/inkscape"
   width="7"
   height="8"
   id="svg2"
   version="1.1"
   inkscape:version="0.91 r13725"
   sodipodi:docname="failed_ovr.svg"
   inkscape:export-filename="/Users/d021678/git/images/com.sap.ide.images/png/sap/obj/tsuitefail.png"
   inkscape:export-xdpi="90"
   inkscape:export-ydpi="90">
  <defs
     id="defs4">
    <linearGradient
       inkscape:collect="always"
       xlink:href="#linearGradient4156"
       id="linearGradient4162"
       x1="4"
       y1="1060.3622"
       x2="4"
       y2="1054.3622"
       gradientUnits="userSpaceOnUse"
       gradientTransform="matrix(0.99831084,0,0,1.0107427,-1.014758,-1063.6918)" />
    <linearGradient
       inkscape:collect="always"
       id="linearGradient4156">
      <stop
         style="stop-color:#446691;stop-opacity:1"
         offset="0"
         id="stop4158" />
      <stop
         style="stop-color:#5174a6;stop-opacity:1"
         offset="1"
         id="stop4160" />
    </linearGradient>
  </defs>
  <sodipodi:namedview
     id="base"
     pagecolor="#a2a2a2"
     bordercolor="#666666"
     borderopacity="1.0"
     inkscape:pageopacity="0"
     inkscape:pageshadow="2"
     inkscape:zoom="77.251416"
     inkscape:cx="3.5"
     inkscape:cy="4"
     inkscape:document-units="px"
     inkscape:current-layer="layer3"
     showgrid="true"
     inkscape:window-width="1666"
     inkscape:window-height="1139"
     inkscape:window-x="856"
     inkscape:window-y="245"
     inkscape:window-maximized="0"
     showguides="false"
     inkscape:guide-bbox="true"
     inkscape:snap-global="true"
     inkscape:snap-bbox="true"
     inkscape:bbox-nodes="true"
     inkscape:snap-bbox-edge-midpoints="false">
    <inkscape:grid
       type="xygrid"
       id="grid3999" />
  </sodipodi:namedview>
  <metadata
     id="metadata7">
    <rdf:RDF>
      <cc:Work
         rdf:about="">
        <dc:format>image/svg+xml</dc:format>
        <dc:type
           rdf:resource="http://purl.org/dc/dcmitype/StillImage" />
        <dc:title></dc:title>
      </cc:Work>
    </rdf:RDF>
  </metadata>
  <g
     inkscape:label="Layer 1"
     inkscape:groupmode="layer"
     id="layer1"
     style="display:inline"
     transform="translate(0,-1044.3622)" />
  <g
     inkscape:groupmode="layer"
     id="layer2"
     inkscape:label="Layer 2"
     transform="translate(0,-8)" />
  <g
     inkscape:groupmode="layer"
     id="layer3"
     inkscape:label="Layer 3"
     transform="translate(0,-8)">
    <path
       style="display:inline;opacity:1;fill:url(#linearGradient4162);fill-opacity:1;stroke:#04306e;stroke-width:1;stroke-linecap:butt;stroke-linejoin:miter;stroke-miterlimit:4;stroke-dasharray:none;stroke-dashoffset:0;stroke-opacity:1"
       d="m 0.5,8.5 6.0000003,0 0,7 L 0.5,15.5 Z"
       id="rect7768"
       inkscape:connector-curvature="0"
       sodipodi:nodetypes="ccccc" />
    <path
       id="path4187"
       d="m 1.25,9.7813 0,0.125 0,0.5 0,0.125 0.125,0 0.375,0 1.1875,1.4063 -1.21875,1.5312 -0.34375,0 -0.125,0 0,0.125 0,0.5 0,0.125 0.125,0 1.5,0 0.125,0 0,-0.125 0,-0.5 0,-0.125 -0.125,0 0.625,-0.8437 0.625,0.8437 -0.125,0 0,0.125 0,0.5 0,0.125 0.125,0 1.5,0 0.125,0 0,-0.125 0,-0.5 0,-0.125 -0.125,0 -0.3125,0 -1.25,-1.5625 1.15625,-1.375 0.40625,0 0.125,0 0,-0.125 0,-0.5 0,-0.125 -0.125,0 -1.5,0 -0.125,0 0,0.125 0,0.5 0,0.125 0.0625,0 -0.5625,0.7188 -0.5625,-0.7188 0.0625,0 0,-0.125 0,-0.5 0,-0.125 -0.125,0 -1.5,0 -0.125,0 z"
       style="color:#000000;font-style:normal;font-variant:normal;font-weight:normal;font-stretch:normal;font-size:7.68999243px;line-height:125%;font-family:Sans;text-indent:0;text-align:start;text-decoration:none;text-decoration-line:none;letter-spacing:0px;word-spacing:0px;text-transform:none;direction:ltr;block-progression:tb;writing-mode:lr-tb;baseline-shift:baseline;text-anchor:start;display:inline;overflow:visible;visibility:visible;fill:#ffffff;fill-opacity:1;fill-rule:nonzero;stroke:none;stroke-width:0.27519909;marker:none;enable-background:accumulate"
       inkscape:connector-curvature="0" />
  </g>
</svg>
