<?xml version="1.0" encoding="UTF-8" standalone="no"?>
<!-- Created with Inkscape (http://www.inkscape.org/) -->

<svg
   xmlns:dc="http://purl.org/dc/elements/1.1/"
   xmlns:cc="http://creativecommons.org/ns#"
   xmlns:rdf="http://www.w3.org/1999/02/22-rdf-syntax-ns#"
   xmlns:svg="http://www.w3.org/2000/svg"
   xmlns="http://www.w3.org/2000/svg"
   xmlns:xlink="http://www.w3.org/1999/xlink"
   xmlns:sodipodi="http://sodipodi.sourceforge.net/DTD/sodipodi-0.dtd"
   xmlns:inkscape="http://www.inkscape.org/namespaces/inkscape"
   width="16"
   height="16"
   id="svg2"
   version="1.1"
   inkscape:version="0.91 r13725"
   sodipodi:docname="discovery.svg">
  <defs
     id="defs4">
    <linearGradient
       id="linearGradient8396">
      <stop
         id="stop8398"
         offset="0"
         style="stop-color:#6fd9ff;stop-opacity:1" />
      <stop
         style="stop-color:#55add0;stop-opacity:1"
         offset="0.5"
         id="stop8400" />
      <stop
         id="stop8402"
         offset="1"
         style="stop-color:#4364a7;stop-opacity:1" />
    </linearGradient>
    <linearGradient
       id="linearGradient7580"
       inkscape:collect="always">
      <stop
         id="stop7582"
         offset="0"
         style="stop-color:#4f4d70;stop-opacity:1" />
      <stop
         id="stop7584"
         offset="1"
         style="stop-color:#4fa8ca;stop-opacity:1" />
    </linearGradient>
    <linearGradient
       inkscape:collect="always"
       id="linearGradient8349">
      <stop
         style="stop-color:#ffffff;stop-opacity:1;"
         offset="0"
         id="stop8351" />
      <stop
         style="stop-color:#ffffff;stop-opacity:0;"
         offset="1"
         id="stop8353" />
    </linearGradient>
    <linearGradient
       id="linearGradient8382">
      <stop
         style="stop-color:#fffcf2;stop-opacity:1"
         offset="0"
         id="stop8384" />
      <stop
         id="stop8392"
         offset="0.35072023"
         style="stop-color:#adc977;stop-opacity:1" />
      <stop
         id="stop8390"
         offset="0.7120198"
         style="stop-color:#7f9f3f;stop-opacity:1" />
      <stop
         style="stop-color:#77775c;stop-opacity:1"
         offset="1"
         id="stop8386" />
    </linearGradient>
    <linearGradient
       inkscape:collect="always"
       xlink:href="#linearGradient8382"
       id="linearGradient7571"
       gradientUnits="userSpaceOnUse"
       x1="9.3787851"
       y1="7.2738252"
       x2="14.059898"
       y2="12.665515"
       gradientTransform="matrix(1.4450739,0,0,1.4450739,-8.184556,1029.6884)" />
    <radialGradient
       inkscape:collect="always"
       xlink:href="#linearGradient8349"
       id="radialGradient7574"
       gradientUnits="userSpaceOnUse"
       gradientTransform="matrix(0.79448227,-0.50275619,0.3921194,0.61964809,-359.0513,-348.78223)"
       cx="-992.8103"
       cy="395.31625"
       fx="-992.8103"
       fy="395.31625"
       r="232.85715" />
    <linearGradient
       inkscape:collect="always"
       xlink:href="#linearGradient7580"
       id="linearGradient7576"
       gradientUnits="userSpaceOnUse"
       x1="-686.46204"
       y1="672.22028"
       x2="-1030.4867"
       y2="328.19562" />
    <radialGradient
       inkscape:collect="always"
       xlink:href="#linearGradient8396"
       id="radialGradient7578"
       gradientUnits="userSpaceOnUse"
       gradientTransform="matrix(1.4882741,-0.45366273,0.4030846,1.3223488,321.81488,-605.72134)"
       cx="-1001.4486"
       cy="450.00662"
       fx="-1001.4486"
       fy="450.00662"
       r="232.85715" />
    <linearGradient
       id="linearGradient8382-7">
      <stop
         style="stop-color:#fffcf2;stop-opacity:1"
         offset="0"
         id="stop8384-4" />
      <stop
         id="stop8392-0"
         offset="0.35072023"
         style="stop-color:#adc977;stop-opacity:1" />
      <stop
         id="stop8390-9"
         offset="0.7120198"
         style="stop-color:#7f9f3f;stop-opacity:1" />
      <stop
         style="stop-color:#77775c;stop-opacity:1"
         offset="1"
         id="stop8386-4" />
    </linearGradient>
    <linearGradient
       y2="12.665515"
       x2="14.059898"
       y1="7.2738252"
       x1="9.3787851"
       gradientTransform="matrix(1.4450739,0,0,1.4450739,-8.184556,1029.9384)"
       gradientUnits="userSpaceOnUse"
       id="linearGradient7603"
       xlink:href="#linearGradient8382-7"
       inkscape:collect="always" />
  </defs>
  <sodipodi:namedview
     id="base"
     pagecolor="#ffffff"
     bordercolor="#666666"
     borderopacity="1.0"
     inkscape:pageopacity="0.0"
     inkscape:pageshadow="2"
     inkscape:zoom="45.254832"
     inkscape:cx="6.3275243"
     inkscape:cy="7.8609076"
     inkscape:document-units="px"
     inkscape:current-layer="g3375"
     showgrid="true"
     inkscape:window-width="1208"
     inkscape:window-height="913"
     inkscape:window-x="1262"
     inkscape:window-y="634"
     inkscape:window-maximized="0"
     showguides="true"
     inkscape:guide-bbox="true"
     inkscape:snap-global="false">
    <inkscape:grid
       type="xygrid"
       id="grid8762" />
  </sodipodi:namedview>
  <metadata
     id="metadata7">
    <rdf:RDF>
      <cc:Work
         rdf:about="">
        <dc:format>image/svg+xml</dc:format>
        <dc:type
           rdf:resource="http://purl.org/dc/dcmitype/StillImage" />
        <dc:title />
      </cc:Work>
    </rdf:RDF>
  </metadata>
  <g
     inkscape:label="Layer 1"
     inkscape:groupmode="layer"
     id="layer1"
     style="display:inline"
     transform="translate(0,-1036.3622)">
    <g
       id="g3375"
       transform="translate(0,-1.0606602)">
      <circle
         transform="matrix(0.02510115,0,0,0.02510115,31.108567,1031.644)"
         id="path3800-3-8"
         style="fill:url(#radialGradient7578);fill-opacity:1;stroke:none"
         cx="-902.85712"
         cy="526.64789"
         r="232.85715" />
      <path
         style="display:inline;fill:url(#linearGradient7603);fill-opacity:1;stroke:#767554;stroke-width:0.5;stroke-linecap:round;stroke-linejoin:round;stroke-miterlimit:4;stroke-dasharray:none;stroke-opacity:1"
         d="m 9.066013,1039.3313 c -0.08358,-10e-5 -0.146685,0.025 0,0.045 0.101849,0.014 -0.05818,0.061 0.09032,0.045 0.07519,-0.065 -0.01658,-0.09 -0.09032,-0.09 z m -1.806342,0.045 c -0.08085,0.016 -0.146193,0.071 -0.225793,0.09 0.167199,-0.042 0.324172,-0.063 0.496744,-0.09 -0.08865,0.014 -0.183662,-0.017 -0.270951,0 z m 0.722537,0 c -0.100838,0.019 -0.125577,0.038 0,0.045 0.08577,-0.039 0.08961,-0.048 0.135475,-0.045 -0.05026,0 -0.09312,-0.014 -0.135475,0 z m 1.625708,0 c -0.0091,-8e-4 -0.03685,0.046 -0.04516,0.045 -0.01605,0.03 -0.129334,0.049 0.04516,0.045 0.0048,0.019 0.01431,0.067 0.04516,0.045 0.01156,-0.019 0.01983,-0.077 0.04516,-0.09 -0.03183,0 -0.05829,-0.039 -0.09032,-0.045 z m -1.128964,0.045 c -0.02416,6e-4 -0.03418,0.051 -0.04516,0.09 -0.09662,-0.065 -0.29735,-0.055 -0.361269,-0.045 -0.05552,0.027 -0.05,0.055 0.135476,0.045 0.103958,0 -0.01496,0.032 -0.09032,0.045 0.02251,0 0.01773,10e-4 0.09032,0 0.09883,0 0.621851,-0.055 0.31611,-0.09 0.02353,-0.04 -0.02653,-0.045 -0.04516,-0.045 z m 0.722537,0 c -0.01127,0.014 0.02183,0.048 0.135475,0.045 0.03143,-0.042 0.03666,-0.046 0,-0.045 -0.03753,5e-4 -0.12416,-0.014 -0.135475,0 z m -0.451586,0.045 c -0.01501,6e-4 8e-5,0.039 0,0.045 0,0 0.04516,0 0.04516,0 0,0 -0.04516,-0.045 -0.04516,-0.045 z m 0.04516,0.045 c -0.04631,0.014 -0.04368,0.033 0.09032,0.045 -0.03234,0 -0.123857,0.062 0.04516,0.045 0.132571,-0.04 0.176165,-0.1373 0.04516,-0.1358 -0.01358,10e-5 -0.02783,0.043 -0.04516,0.045 0.01672,0.017 -0.08916,-0.014 -0.135476,0 z m 1.128964,-0.045 c -0.01387,0.017 -0.03883,0.027 -0.04516,0.045 -0.009,0.026 0.01026,0.077 0,0.09 -0.0072,0 -0.03152,0 -0.04516,0 -0.05439,-3e-4 -0.162088,0.014 -0.180634,0 -0.153773,-0.014 -0.07519,0.025 -0.04516,0.045 0.138264,0.014 0.297103,0.08 0.31611,0.09 0.136704,0.014 0.03662,-0.1584 0.270951,-0.09 -0.0059,-0.024 0.0011,-0.039 0.04516,-0.045 -0.105129,-0.035 -0.208457,-0.1069 -0.316109,-0.1358 z m -0.722537,0.045 c 0.01559,0.014 0.002,0.033 0.04516,0.045 0.06509,-0.037 0.0069,-0.045 -0.04516,-0.045 z m -1.625708,0.045 c -0.253349,0.1142 -0.426184,0.1817 -0.406427,0.271 0.180027,-0.019 0.371333,-0.1717 0.587061,-0.1807 0.223903,-0.075 -0.05272,-0.085 -0.180634,-0.09 z m 1.445074,0.045 c -0.0409,0.016 -0.01728,0.074 0.09032,0.09 0.02965,-0.053 -0.0091,-0.091 -0.04516,-0.09 -0.01504,2e-4 -0.03153,0 -0.04516,0 z m -0.677379,0.045 c -0.04481,0 -0.05671,0.036 0,0.09 0.172461,-0.032 0.0655,-0.091 0,-0.09 z m 0.31611,0.045 c -0.137831,0.038 0.04928,0.025 -0.09032,0.09 -0.207472,-0.068 -0.03163,0.1658 0,0.1807 0.04266,0 0.131011,-0.088 0.180635,-0.1359 -0.03626,-0.026 0.01566,-0.071 0.04516,-0.09 3.77e-4,-0.014 -0.01069,-0.04 -0.04516,-0.045 -0.0196,0 -0.06061,9e-4 -0.09032,0 z m 1.716025,0 c -0.004,0 -0.01945,0.029 0,0.045 0.07818,0.033 0.02507,0.035 0.04516,0.045 0.03601,0.071 0.313666,0.1649 0.180634,0.1359 0.135678,0.027 0.416206,0.3372 0.361268,0.2257 0.04163,0.069 0.111546,0.3245 0.09032,0.2258 0.0104,0 0.09364,0.062 0.09032,0.09 0.07303,0.017 0.09192,0.066 0.09032,0.09 0.01387,0 0.03951,0.059 0,0.045 0,0 -0.04516,0 -0.04516,0 0.0066,0 -0.0061,0.043 0,0.045 0.123612,0.045 0.0056,0.1286 0.04516,0.1359 -0.04496,4e-4 -0.04601,0.036 -0.04516,0.045 0.0078,0 -0.0058,0.042 0,0.045 0.01988,0 -0.03053,0.046 0.09032,0.045 -0.02273,-9e-4 -0.102253,0.014 -0.135475,0 0.01098,0 0.0066,0.027 0.04516,0.045 -0.05684,0.014 -0.08789,0.068 -0.09032,0.09 0.156122,-0.053 0.09485,0.022 0.04516,0.045 0.04858,0 0.08897,0.019 0.09032,0.045 0.01497,0 0.03866,0.033 0,0.045 -0.0022,0 0.004,0.039 0,0.045 0.0072,0 -0.0046,0.041 0,0.045 -0.08747,0.03 -0.03464,0.1041 0,0.1359 -0.002,7e-4 0.0424,0.014 0.04516,0 -0.0084,0.09 0.04516,0.2208 0.04516,0.1806 0.08871,0.084 0.176136,0.1171 0.180634,0.09 0.02958,0 0.141039,0.071 0.135476,0.09 0.04514,0.014 0.07444,0 0.04516,-0.045 0.0042,-0.02 -0.0097,-0.055 0,-0.09 0.01272,-0.048 0.01607,-0.066 0,-0.045 -0.04244,-0.038 0.08587,-0.075 0.04516,-0.09 0.04006,-0.039 0.02247,-0.3081 0.04516,-0.1806 0.124681,-0.045 0.167427,0.042 0.180635,-0.045 3.52e-4,0.069 0.06373,0.014 0.09032,0 0.0064,0 0.04063,0 0.04516,0 0.03445,-0.027 -0.01487,-0.1848 0.04516,-0.1359 0.07386,0.1171 0.333387,0.12 0.406427,0.045 -0.06679,-0.035 -0.100563,-0.071 -0.135476,-0.09 -0.05608,-0.02 -0.07516,-0.078 -0.09032,-0.09 0.0149,0 0.03384,0.029 0.09032,0.045 0.02376,0.022 0.03107,-0.014 0.04516,0 -0.04337,-0.059 -0.08394,-0.1445 -0.09032,-0.1358 -0.04805,-0.045 -0.05874,-0.053 -0.04516,-0.045 -0.07471,-0.052 -0.0069,-0.071 0.09032,0 -0.503631,-0.4665 -1.072016,-0.862 -1.716025,-1.1289 -0.03867,0 -0.236008,-0.039 -0.31611,-0.045 z m -2.619196,0.045 c -0.05805,0.035 -0.103164,0.066 -0.180634,0.09 0.08266,0 -0.436024,0.1185 0.04516,0.09 -0.06329,0.036 -0.540547,0.059 -0.180634,0.1806 -0.12825,0.2039 0.586882,-0.068 0.406427,0 0.06181,-0.017 0.09822,0.091 0.225793,0.09 0.162503,-0.03 0.129551,-0.1228 0.09032,-0.1358 0.0322,-0.02 0.06892,-0.048 0.09032,-0.045 -0.05185,-0.059 -0.08393,-0.087 0,-0.1806 -0.05951,0.04 -0.194185,0.088 -0.180634,0 0.0082,-0.059 0.01776,-0.1739 -0.04516,-0.09 -0.09198,0.024 -0.17661,0.014 -0.225793,0 -0.0104,0 -0.04373,0 -0.04516,0 z m 1.535391,0.09 c -0.107831,0.033 -0.344638,0.2215 -0.09032,0.271 -0.04356,-0.014 -0.07185,0 -0.09032,0 0.04418,0.037 0.112152,0.1069 0.09032,0.09 0.04681,0.014 0.147535,0.032 0.225793,0.045 0.105317,0.019 0.193436,0.033 0.135476,0.045 0.130201,0.058 0.05777,-0.1893 0.135475,0.045 0.128077,0.02 0.27517,0.1141 0.135476,0.1358 -0.0069,10e-5 -0.01567,0.081 0,0.045 0.0402,0.062 0.150499,0.1579 0.135476,0.09 0.08315,0.065 -0.110548,0.1569 -0.180635,0.1806 0.0177,0.059 -0.03884,0.1113 -0.09032,0.1359 0.06264,-0.014 0.246448,0.246 0.180635,0.1806 -0.02867,0.014 -0.02299,0.022 0,0.045 -0.0098,0 0.02185,0.061 0.04516,0.045 0.097426,0.065 0.245697,0.1257 0.270951,0.1358 0.01,-0.036 -0.04431,-0.1257 -0.09032,-0.1806 0.01185,0 0.02392,-0.014 0.04516,0 0.04767,0.014 0.146999,0.027 0.135476,0.09 0.04169,-0.036 -0.0049,-0.1807 0,-0.1807 -0.1151,-0.1611 -0.108568,-0.098 -0.135476,-0.2257 -0.02711,-0.023 0.167583,-0.014 0.135476,0 0.02048,0.032 0.0404,0.062 0.04516,0.09 -0.01575,0 0.140056,-0.068 0.135475,0.045 0.03637,-0.023 0.03461,-0.061 0.04516,-0.09 0.168702,0 -0.05389,-0.052 0,-0.045 0.01402,-0.1011 -0.11841,-0.053 -0.09032,-0.1358 -0.04477,-0.051 -0.130837,-0.1156 -0.09032,-0.045 -0.01753,0 -0.07007,-0.058 -0.09032,-0.09 0.0078,-0.02 -0.0017,-0.058 0.135476,-0.045 -0.05561,-0.017 -0.08386,-0.032 -0.09032,-0.045 0.01798,-0.016 0.03208,-0.055 -0.09032,-0.045 -0.0299,-0.03 0.01838,-0.038 0.04516,-0.045 -6.12e-4,-0.014 -0.01171,-0.02 -0.04516,-0.045 -0.109146,0.048 -0.0098,-0.017 -0.04516,-0.045 -0.02155,0.014 -0.04663,0.014 -0.04516,0 0.09383,-0.043 0.01718,-0.1055 -0.04516,-0.09 0.02032,-0.019 -0.02958,-0.066 -0.090317,-0.045 -0.106357,-0.024 0.01585,0 -0.09032,-0.09 -0.01676,-0.038 -0.01501,-0.09 -0.04516,-0.09 -0.05507,2e-4 -0.07881,0.043 -0.09032,0.045 -0.01653,-0.046 -0.0349,-0.062 -0.04516,-0.045 0.0046,-0.056 -0.03548,-0.1055 -0.180634,-0.045 -0.07579,0.02 -0.05127,0.1577 -0.09032,0.09 -0.0397,-0.032 -0.06827,-0.027 -0.09032,0 -0.02205,0.028 -0.02562,0.071 0,0.09 -0.08386,0.017 -0.04658,-0.035 0,-0.09 0.06987,-0.084 0.144175,-0.1831 0.04516,-0.1806 -0.02027,4e-4 -0.04897,-0.014 -0.09032,0 z m -2.528879,0.09 c -0.04168,0.016 -0.138857,0.061 -0.225793,0.09 -0.08448,0.02 -0.177462,0.014 -0.135476,0 -0.03442,-0.014 -0.225251,0.104 -0.31611,-0.045 -0.15475,0.014 -0.22998,0 -0.316109,0 -0.01172,0 -0.03348,0 -0.04516,0 -0.51809,0.2744 -0.988949,0.6277 -1.399916,1.0387 -0.05146,0.048 -0.09312,0.1229 -0.135475,0.1807 -0.06051,0.084 -0.07162,0.1445 0,0.09 -0.08021,0.088 -0.106752,0.2593 0.04516,0.1358 -0.127771,0.1948 -0.324817,0.3604 -0.451586,0.4968 0.207116,-0.1689 0.390662,-0.3587 0.587061,-0.5419 0.01575,-0.084 0.1341,-0.1329 0.225793,-0.1806 -0.09124,0.084 -0.180188,0.2231 -0.09032,0.1358 0.0882,-0.035 0.212553,-0.1668 0.270951,-0.2257 -0.0011,0 0.04432,0 0.04516,0 0.01399,-4e-4 0.02171,0 0,0.045 0.04249,0.014 0.1853,0.077 0.225793,0.09 0.04562,-0.023 0.147873,0.085 0.135476,0.1358 0.0124,-0.014 0.03244,-0.022 0.04516,-0.09 0.0099,-0.039 -0.03141,0.2057 0,0.1807 -0.01275,0.029 -0.0353,0.061 -0.04516,0.09 0,0 -0.04516,0.045 -0.04516,0.045 -0.0081,0.019 -0.0064,0.039 0,0.045 0,0 0.04516,-0.045 0.04516,-0.045 -0.0034,0.014 -0.0015,0.035 0,0.045 -0.005,5e-4 -0.02389,0.059 0,0.045 0.0046,0 0.03764,-4e-4 0.04516,0 -0.02653,0.027 -0.01638,0.036 0,0.045 0.01488,0.014 5.5e-5,0.041 -0.04516,0.09 -0.01454,0.014 0.02371,0.025 0,0.045 -0.02886,0.095 0.01342,0.1359 0.04516,0.1359 -0.01798,0.079 -0.01867,0.1579 0,0.1806 -0.0415,0.059 -0.07669,0.1416 -0.04516,0.09 0.07378,-0.014 0.0011,0.1257 -0.04516,0.1806 0.02834,-0.014 0.07674,-0.026 0.180634,-0.09 -0.0082,0.025 0.123813,0.082 0.04516,0.1359 0.03263,0.051 0.02895,0.1286 0,0.1806 -0.01908,0.033 -0.0424,0.038 -0.04516,0.045 -0.05049,-0.2244 -0.182126,0.3601 -0.180634,0.2257 -0.09281,0.2171 -0.184077,0.401 -0.225793,0.6322 -0.08139,0.1739 -0.02076,0.4711 0.04516,0.4065 0.04001,0.1529 0.01708,0.3703 0.180634,0.4064 0.155322,0.152 0.10817,0.4311 0.270952,0.5871 0.02048,0.12 -0.128768,0.1931 0.04516,0.2258 0.113208,0.2501 0.133117,0.4109 0.270951,0.3612 -0.09169,-0.1055 -0.25631,-0.5183 -0.225793,-0.4966 -0.07931,-0.1287 -0.173621,-0.4827 0,-0.3613 0.07233,0.1521 0.132911,0.363 0.270952,0.4967 0.0043,0.1563 0.22556,0.3085 0.270951,0.5419 -0.03782,0.1572 0.02529,0.2692 0.180634,0.3612 0.218358,0.061 0.436111,0.2914 0.677379,0.1807 0.156357,-0.027 0.289166,0.3063 0.496744,0.2709 0.229001,0.023 0.220627,0.081 0.361268,0.271 -0.01156,0.1828 0.112181,-0.048 0.135476,0.1806 0.07209,-0.014 0.307461,0.062 0.361268,0.09 0.008,-0.1884 0.269413,-0.1286 0.225793,0.045 0.0747,0.1574 0.06241,0.3712 -0.09032,0.4967 -0.101184,0.04 -0.200609,0.2345 -0.225793,0.3161 0.227877,-0.024 0.131112,0.3285 0.04516,0.3613 0.205709,0.1171 0.276077,0.371 0.406427,0.5419 0.08621,0.1857 0.388537,0.1857 0.496745,0.3613 0.02814,0.2003 -0.01387,0.35 0,0.5419 -0.08689,0.1501 0.0177,0.3206 -0.04516,0.4516 -0.07473,0.1185 -0.115361,0.3503 0.04516,0.3612 -0.0084,0.039 -0.07266,0.092 -0.09032,0.1359 -0.0056,0.014 0,0.037 0,0.045 -0.112398,0 -0.08498,0.022 -0.04516,0.045 0,0 0.04516,0.045 0.04516,0.045 0.01329,5e-4 0.02896,0.014 0.04516,0 0.01402,0.014 -0.01,0.038 0,0.045 0.136082,-0.014 0.273318,-0.022 0.406427,-0.045 -0.182325,-0.026 0.237626,-0.1416 0,-0.1807 0.0987,-0.026 0.0774,-0.091 0.180634,-0.1358 0.0084,-0.042 0.196108,-0.2228 0.361268,-0.2257 0.411132,-0.071 -0.203677,-0.3353 0.180634,-0.2259 0.116964,0.065 0.29323,-0.1387 0.361268,-0.2257 -0.05939,0.1585 0.281741,-0.3464 0.270952,-0.3613 0.152708,-0.1141 0.609512,-0.2704 0.451585,-0.2709 0.207422,-0.1445 0.281629,-0.4255 0.31611,-0.6775 0.174726,-0.1458 0.295933,-0.4276 0.31611,-0.4967 -0.03568,-0.1242 -0.504442,-0.2372 -0.361268,-0.2258 -0.09757,-0.046 -0.233604,-0.068 -0.270952,0 -0.0094,-0.091 -0.304507,-0.12 -0.225792,-0.09 -0.04999,0.036 -0.06761,0.019 -0.09032,0.045 -0.08046,0.091 -0.03829,0.1402 -0.135475,0.045 0.07592,-0.014 0.116516,-0.022 0.135475,-0.045 0.02843,-0.035 0.0011,-0.084 -0.04516,-0.09 -0.0077,6e-4 -0.04117,0 -0.04516,0 -0.0056,0 -0.0429,0 -0.04516,0 -0.03051,0.014 -0.06114,0.051 -0.09032,0.09 -0.08452,-0.025 -0.05975,-0.4036 0.09032,-0.3162 -0.04208,-0.1644 -0.180697,-0.2458 -0.361269,-0.2709 -0.226956,0.053 -0.267778,-0.088 -0.406428,-0.2258 -0.12468,0.029 -0.226532,-0.1741 -0.225792,-0.1806 -0.170932,0.1199 -0.602057,-0.014 -0.677378,-0.045 -0.07045,0 -0.113251,0.051 -0.09032,0.1806 -0.206379,0.081 0.108481,-0.3398 -0.09032,-0.2257 -0.128959,0.162 -0.280423,0.02 -0.31611,0.2257 -0.133785,0.2002 -0.09785,0.082 -0.31611,0 -0.251648,0.1373 -0.45284,-0.023 -0.406427,-0.1806 0.05422,-0.1344 -0.01026,-0.3454 0,-0.3613 -0.06094,-0.014 -0.195335,-0.087 -0.361269,-0.045 -0.246457,0.08 0.06764,-0.1517 0,-0.2258 -0.01619,-0.075 -0.120895,-0.3133 0.04516,-0.3161 -0.247612,-0.039 -0.264447,0.1746 -0.361268,0.3161 -0.0863,-0.074 -0.302964,0.075 -0.406427,-0.09 -0.179455,-0.1674 -0.16357,-0.4262 -0.09032,-0.6322 0.0687,-0.079 -0.0041,-0.3479 0.180634,-0.3613 0.172498,-0.097 0.118395,-0.1272 0.361268,-0.09 0.05499,0.014 0.126242,-0.1012 0.225793,0 0.0094,-0.1448 0.439329,-0.085 0.31611,-0.09 0.08587,0.1098 0.246796,0.014 0.270952,0.2259 -0.01344,0.075 0.142137,0.2426 0.180634,0.316 0.169985,-0.2103 -0.187016,-0.5442 0.09032,-0.7225 0.159459,-0.107 0.428687,-0.2989 0.406427,-0.3161 0.01301,0 0.026,-0.042 0.04516,-0.045 -0.01344,-0.014 -0.01026,-0.03 -0.04516,-0.045 0.08519,-0.064 0.01448,-0.2354 0,-0.2709 0.0055,0 0.101155,-0.1952 0.09032,0.045 0.03461,0.2464 0.06759,-0.1026 0.09032,-0.1807 0.0452,-0.03 0.08222,-0.074 0.135475,-0.1358 0.0077,-0.014 0.03254,0 0.04516,0 0.04512,-0.043 0.102095,-0.1084 0.180635,-0.09 0.166978,-0.014 0.07412,-0.014 0.09032,-0.1806 0.113308,-0.133 0.258747,-0.1768 0.31611,-0.1807 -0.0461,-0.072 0.156313,-0.014 0.225792,-0.045 -0.07598,0.039 -0.223603,0.1755 -0.04516,0.2259 0.03367,-0.1416 0.343512,-0.1402 0.31611,-0.2259 -0.0039,-0.014 -0.02468,0.019 -0.04516,0 -0.210821,0.091 -0.329963,-0.2102 -0.270952,-0.2257 -0.212243,-0.046 0.384506,-0.1315 0,-0.1806 -0.317741,0.091 -0.597593,0.3519 -0.225793,0 0.177503,-0.055 0.196233,-0.2214 0.406428,-0.1358 0.136068,0.02 0.347227,0.1156 0.451585,-0.045 0.104349,0.029 0.233393,-0.082 0.180635,-0.1359 0.05896,-0.08 -0.02912,-0.1657 -0.04516,-0.1358 -0.01055,-0.074 -0.115635,-0.035 -0.180634,0 0.0053,-0.014 -0.01857,-0.025 0,-0.045 0.05017,-0.03 0.248185,-0.045 0.04516,-0.1359 -0.06626,0.025 -0.157196,-0.052 -0.09032,-0.045 -0.132657,-0.084 -0.07231,-0.2902 -0.09032,-0.2258 0.04756,-0.069 0.08129,-0.1875 0,-0.1358 -0.116054,0.016 0.0048,-0.069 -0.09032,-0.1806 -0.0026,-0.03 -0.03958,-0.036 -0.04516,-0.045 -0.02613,0.046 -0.09116,0.1199 -0.09032,0.09 -0.0039,0.071 -0.174478,0.1098 -0.180634,0.09 -0.07276,0.03 0.034436,-0.071 -0.135476,-0.09 -0.01477,-0.026 -0.01754,-0.1055 -0.04516,-0.1359 0.15668,0.065 0.206565,-0.1513 0.04516,-0.1358 -0.05439,-0.042 -0.357893,-0.1402 -0.225793,-0.1807 -0.200677,-0.1069 -0.247223,-0.014 -0.31611,0.1359 0.06246,0 -0.06841,0.1228 0,0.1358 -0.09434,0.1315 -0.02214,0.3989 0,0.4516 -0.0052,0.1041 -0.239914,0.361 -0.316109,0.2257 -0.04092,0.1041 -0.103554,0.3613 -0.04516,0.271 0.03178,0.1185 -0.08633,0.03 -0.135476,0.045 -0.119681,-0.1 -0.109262,-0.2182 -0.04516,-0.4065 -0.03478,-0.1704 -0.223877,-0.029 -0.31611,-0.2257 -0.07438,-0.097 -0.278593,-0.1869 -0.361269,-0.1807 0.0474,-0.2799 -0.188827,-0.027 -0.09032,-0.2258 0.03785,-0.1539 0.16659,-0.2857 0.270952,-0.3613 0.07663,-0.055 0.137267,-0.014 0.09032,-0.1358 0.182851,0.1758 0.08571,-0.023 0.09032,-0.045 0.168566,0.097 0.129536,-0.09 0.270951,0 0.06816,-0.014 0.115606,-0.027 0.135476,-0.045 0.03516,-0.033 -0.0032,-0.098 -0.04516,-0.1359 0.178419,0.092 0.196885,-0.2188 0.31611,-0.09 0.0051,0 0.02697,-0.042 0.04516,0 0.17381,0.029 0.142296,-0.2815 0.180634,-0.1806 0.01484,0 -0.0064,-0.043 0,-0.045 -0.03571,-0.032 -0.07068,-0.065 -0.09032,-0.09 -0.06392,0.051 -0.170448,0.1286 -0.225793,0.1806 -0.03445,0.017 -0.054,0.058 -0.04516,0.045 -0.08305,-0.014 0.07733,-0.3585 -0.09032,-0.2257 -0.03918,0.032 -0.06835,0.045 -0.09032,0.045 -0.0104,-0.035 -0.009,-0.1127 0.04516,-0.1358 -0.11984,-0.059 0.102268,-0.061 0,-0.2259 -0.06704,-0.068 -0.211871,0.1629 -0.180634,0.09 -0.20411,0.072 0.216982,0.151 -0.04516,0.1806 0.186072,0.035 -0.11247,0.2885 -0.135476,0.1807 -0.09621,0.092 0.08105,-0.2178 0,-0.1359 -0.02632,0 -0.09958,0 -0.135476,0 -0.0012,0 -0.02827,0.02 0,0.045 0.0055,0.038 -0.330384,-0.037 -0.406427,-0.045 -0.05374,-0.052 -0.06724,-0.093 -0.135475,-0.09 -0.124204,0 -0.150668,0.1496 -0.180634,0.1807 -0.111517,0.1214 -0.13773,-0.097 -0.04516,-0.09 -0.134609,-0.023 -0.225598,-0.061 -0.270952,-0.09 -0.0033,-0.017 -0.02208,-0.075 -0.04516,-0.09 -0.114594,-0.1513 -0.229456,-0.2437 -0.31611,-0.1358 -0.159354,0.1621 -0.08913,-0.049 -0.135475,-0.045 -0.0085,5e-4 -0.02415,-0.019 -0.04516,0 z m 1.716025,0.3613 0.04516,0 c 0.08851,0.022 0.01697,-0.1791 -0.04516,-0.1807 -0.01011,-2e-4 -0.03498,0.035 -0.04516,0.045 -0.11364,0.051 -0.160962,0.023 0,0.09 l 0.04516,0.045 z m 0.361269,0.5419 c -0.0079,0.014 -0.0117,0.072 0,0.045 0.0048,0.035 0.08076,0.1112 0.09032,0.09 0.15424,-0.195 0.164664,0.046 0.31611,0 -0.03415,-0.04 -0.227202,-0.261 -0.225793,-0.271 -0.05786,-3e-4 -0.156921,0.1055 -0.180634,0.1359 z m 1.399914,2.3933 c 0.0016,0.014 0.01286,0 0.04516,0 0.02961,-0.048 0.103626,0.014 0.04516,-0.1358 -0.0038,0.014 -0.09519,0.098 -0.09032,0.1358 z m -5.102916,-0.7676 c 0.02219,0.046 0.01172,0.1141 0,0.09 0.06356,0.033 0.08657,0.1257 0.180634,0.09 0.02836,-0.081 -0.112878,-0.1272 -0.180634,-0.1807 z m 4.651331,-1.9419 c -0.06072,-10e-5 -0.231662,0.094 -0.04516,0.09 0.06634,-0.065 0.07481,-0.09 0.04516,-0.09 z m 1.309598,0.09 c -0.05374,-2e-4 -0.06829,0.1402 0.09032,0.1358 -0.04105,-0.09 -0.06407,-0.1358 -0.09032,-0.1358 z m 1.535391,0.9484 c 0.02032,0.016 0.02788,0.074 0.04516,0.09 -0.03007,-0.041 -0.02595,-0.091 -0.04516,-0.09 z m 0.04516,0.09 c 0.07977,0.068 -0.03724,0.1199 0.135475,0.1806 l 0.04516,0.045 c 0.104508,0.014 0.05055,-0.1823 0.04516,-0.2257 -0.08876,-0.014 -0.177523,0.071 -0.180634,0 -0.01127,-0.019 -0.03513,0.014 -0.04516,0 z m -3.612685,0.1806 c -0.02996,0 -0.110215,0.1185 0,0.09 0.03486,-0.04 0.01272,-0.091 0,-0.09 z m -0.316109,0.4064 c -0.04649,4e-4 -0.0422,0.065 0.09032,0.045 -0.01562,-0.035 -0.07069,-0.045 -0.09032,-0.045 z m 4.922282,0.3162 c 0.02285,0.065 0.03779,0.117 0.09032,0.2257 0.01546,0 0.02498,0.026 0.04516,0.045 -0.04052,-0.092 -0.09033,-0.1807 -0.135475,-0.271 z m -0.180634,0.045 c -0.0026,0.088 0.04016,0.2547 0.09032,0.3612 0.0082,0.017 -0.0074,0.03 0,0.045 -0.0045,6e-4 -0.01373,0.049 0,0.045 0.003,0 0.04264,0 0.04516,0 -0.04351,0.1471 0.05649,0.1713 0,0.2259 0.201321,0.042 0.08532,-0.2345 0.04516,-0.3162 -0.05098,-0.1669 -0.167239,-0.3111 -0.180635,-0.3613 z m -3.386892,0.1358 c -0.05487,10e-5 -0.03402,0.081 0.180634,0.1358 -0.05527,-0.082 -0.140591,-0.1358 -0.180634,-0.1358 z m 0.541903,0 c -0.04708,0.08 -0.09808,0.1676 -0.180635,0.1806 -0.05662,0.074 0.103049,0.181 0.270952,0.1359 -0.0013,0.042 -0.06347,0.117 0.09032,0.045 0.01597,-0.038 -0.0059,-0.046 0,-0.045 0,0 0.04516,0.045 0.04516,0.045 0.0055,0.04 0.01156,0.097 0.04516,0.09 0.121487,-0.1185 -0.04139,-0.094 -0.04516,-0.1359 -0.0013,-0.014 0.0012,-0.055 0.04516,-0.09 -0.145799,0.081 -0.211123,-0.059 -0.09032,-0.09 -0.19025,-0.016 -0.02279,-0.03 -0.09032,-0.09 -0.103309,0.062 -0.115679,0.014 -0.09032,-0.045 z m 2.79983,0.09 c -0.01468,9e-4 -0.03501,0.014 -0.04516,0.045 -0.01171,0.058 0.02377,0.2852 0.04516,0.2259 0.01494,0.014 0.01387,0.062 0.04516,0.045 0.141545,-0.022 0.02559,-0.3205 -0.04516,-0.316 z m 0.406427,0.1358 c 0.01685,0.1416 -0.002,0.3213 0,0.3613 -0.05686,0.077 -0.144873,0.1199 -0.180634,0.1358 0.07341,0.08 -0.01626,0.3265 0.04516,0.4064 -0.122759,-0.016 -0.140562,0.2322 -0.135475,0.3162 -0.01455,0.2338 0.150043,0.3205 0.180634,0.316 0.165256,0 0.194273,-0.4905 0.180634,-0.3613 0.02171,-0.2263 0.177348,-0.2855 0.225793,0 -0.07153,-0.4133 -0.162611,-0.7953 -0.31611,-1.1741 z m 0,1.5354 c -0.07381,0.019 -0.108785,0.056 -0.04516,0.09 -0.155097,-0.022 -0.26964,0.6838 -0.270952,0.5419 -0.174871,0.1601 -0.273942,0.3996 -0.31611,0.6322 0.09247,0.1928 0.04996,0.7639 0,0.6775 0.04069,0.117 0.14247,0.4104 0.135476,0.2709 0.05247,0.159 0.220336,0.3128 0.361268,0.1359 0.196646,-0.1599 0.3696,-0.1979 0.225793,0.1358 0.200782,-0.5907 0.361269,-1.193 0.361269,-1.8516 0,-0.063 -0.04318,-0.1185 -0.04516,-0.1806 -0.126574,-0.1431 -0.353445,-0.4402 -0.180634,-0.4516 -0.06779,-0.02 -0.151984,-0.019 -0.225793,0 z m -5.735136,1.1291 c -0.07149,-6e-4 -0.109219,0.043 -0.180635,0.089 -0.04014,0.049 0.02093,0.055 0.09032,0.045 0,0 0.04516,0 0.04516,0 0.04747,-0.014 0.08867,-0.036 0.09032,-0.045 0.009,0.014 0.613981,0.2571 0.361269,0.1807 0.02809,0.02 0.04955,0.032 0.04516,0.045 0.0053,0.014 0.03601,0.049 0.180634,0.045 0.208289,-0.065 -0.190365,-0.1866 -0.180634,-0.1807 -0.01957,-0.014 -0.02504,-0.035 -0.04516,-0.045 -0.02554,-0.038 -0.03158,-0.045 -0.04516,-0.045 -0.105924,-0.053 -0.248041,-0.089 -0.361268,-0.089 z m -5.148076,0.089 c -0.01985,0 -0.05147,0.056 0,0.09 0.0185,-0.063 0.01358,-0.091 0,-0.09 z m 6.006088,0.2258 c -0.03209,5e-4 -0.05499,0.033 -0.04516,0.045 0.02298,0.016 -0.01,0.033 0,0.045 -0.0094,-2e-4 -0.01896,0.059 0,0.045 -0.02114,0 -0.02792,0.043 -0.04516,0.045 0.12221,-0.067 0.110953,0.078 0.180635,0.045 0.02858,-0.095 0.375135,-0.032 0.270951,-0.1359 -0.02182,-0.051 -0.264998,-0.092 -0.361268,-0.09 z m 0.587062,0.1358 c -0.05835,0 -0.187045,0.1171 0,0.09 0.01783,-0.039 0.02464,-0.091 0,-0.09 z m -1.083806,0.045 c 0.0097,0.014 0.01912,0.032 0.04516,0.045 l 0.04516,0 c 0.172535,-0.016 -0.01402,-0.046 -0.09032,-0.045 z m -1.219281,1.6257 c -0.0163,0 -0.0011,0.1185 0.04516,0.09 -0.0078,-0.061 -0.03802,-0.09 -0.04516,-0.09 z"
         id="path3800-3-8-0-8"
         inkscape:connector-curvature="0" />
      <path
         style="display:inline;fill:url(#linearGradient7571);fill-opacity:1;stroke:none"
         d="m 9.066013,1039.0813 c -0.08358,-10e-5 -0.146685,0.025 0,0.045 0.101849,0.014 -0.05818,0.061 0.09032,0.045 0.07519,-0.065 -0.01658,-0.09 -0.09032,-0.09 z m -1.806342,0.045 c -0.08085,0.016 -0.146193,0.071 -0.225793,0.09 0.167199,-0.042 0.324172,-0.063 0.496744,-0.09 -0.08865,0.014 -0.183662,-0.017 -0.270951,0 z m 0.722537,0 c -0.100838,0.019 -0.125577,0.038 0,0.045 0.08577,-0.039 0.08961,-0.048 0.135475,-0.045 -0.05026,0 -0.09312,-0.014 -0.135475,0 z m 1.625708,0 c -0.0091,-8e-4 -0.03685,0.046 -0.04516,0.045 -0.01605,0.03 -0.129334,0.049 0.04516,0.045 0.0048,0.019 0.01431,0.067 0.04516,0.045 0.01156,-0.019 0.01983,-0.077 0.04516,-0.09 -0.03183,0 -0.05829,-0.039 -0.09032,-0.045 z m -1.128964,0.045 c -0.02416,6e-4 -0.03418,0.051 -0.04516,0.09 -0.09662,-0.065 -0.29735,-0.055 -0.361269,-0.045 -0.05552,0.027 -0.05,0.055 0.135476,0.045 0.103958,0 -0.01496,0.032 -0.09032,0.045 0.02251,0 0.01773,10e-4 0.09032,0 0.09883,0 0.621851,-0.055 0.31611,-0.09 0.02353,-0.04 -0.02653,-0.045 -0.04516,-0.045 z m 0.722537,0 c -0.01127,0.014 0.02183,0.048 0.135475,0.045 0.03143,-0.042 0.03666,-0.046 0,-0.045 -0.03753,5e-4 -0.12416,-0.014 -0.135475,0 z m -0.451586,0.045 c -0.01501,6e-4 8e-5,0.039 0,0.045 0,0 0.04516,0 0.04516,0 0,0 -0.04516,-0.045 -0.04516,-0.045 z m 0.04516,0.045 c -0.04631,0.014 -0.04368,0.033 0.09032,0.045 -0.03234,0 -0.123857,0.062 0.04516,0.045 0.132571,-0.04 0.176165,-0.1373 0.04516,-0.1358 -0.01358,10e-5 -0.02783,0.043 -0.04516,0.045 0.01672,0.017 -0.08916,-0.014 -0.135476,0 z m 1.128964,-0.045 c -0.01387,0.017 -0.03883,0.027 -0.04516,0.045 -0.009,0.026 0.01026,0.077 0,0.09 -0.0072,0 -0.03152,0 -0.04516,0 -0.05439,-3e-4 -0.162088,0.014 -0.180634,0 -0.153773,-0.014 -0.07519,0.025 -0.04516,0.045 0.138264,0.014 0.297103,0.08 0.31611,0.09 0.136704,0.014 0.03662,-0.1584 0.270951,-0.09 -0.0059,-0.024 0.0011,-0.039 0.04516,-0.045 -0.105129,-0.035 -0.208457,-0.1069 -0.316109,-0.1358 z m -0.722537,0.045 c 0.01559,0.014 0.002,0.033 0.04516,0.045 0.06509,-0.037 0.0069,-0.045 -0.04516,-0.045 z m -1.625708,0.045 c -0.253349,0.1142 -0.426184,0.1817 -0.406427,0.271 0.180027,-0.019 0.371333,-0.1717 0.587061,-0.1807 0.223903,-0.075 -0.05272,-0.085 -0.180634,-0.09 z m 1.445074,0.045 c -0.0409,0.016 -0.01728,0.074 0.09032,0.09 0.02965,-0.053 -0.0091,-0.091 -0.04516,-0.09 -0.01504,2e-4 -0.03153,0 -0.04516,0 z m -0.677379,0.045 c -0.04481,0 -0.05671,0.036 0,0.09 0.172461,-0.032 0.0655,-0.091 0,-0.09 z m 0.31611,0.045 c -0.137831,0.038 0.04928,0.025 -0.09032,0.09 -0.207472,-0.068 -0.03163,0.1658 0,0.1807 0.04266,0 0.131011,-0.088 0.180635,-0.1359 -0.03626,-0.026 0.01566,-0.071 0.04516,-0.09 3.77e-4,-0.014 -0.01069,-0.04 -0.04516,-0.045 -0.0196,0 -0.06061,9e-4 -0.09032,0 z m 1.716025,0 c -0.004,0 -0.01945,0.029 0,0.045 0.07818,0.033 0.02507,0.035 0.04516,0.045 0.03601,0.071 0.313666,0.1649 0.180634,0.1359 0.135678,0.027 0.416206,0.3372 0.361268,0.2257 0.04163,0.069 0.111546,0.3245 0.09032,0.2258 0.0104,0 0.09364,0.062 0.09032,0.09 0.07303,0.017 0.09192,0.066 0.09032,0.09 0.01387,0 0.03951,0.059 0,0.045 0,0 -0.04516,0 -0.04516,0 0.0066,0 -0.0061,0.043 0,0.045 0.123612,0.045 0.0056,0.1286 0.04516,0.1359 -0.04496,4e-4 -0.04601,0.036 -0.04516,0.045 0.0078,0 -0.0058,0.042 0,0.045 0.01988,0 -0.03053,0.046 0.09032,0.045 -0.02273,-9e-4 -0.102253,0.014 -0.135475,0 0.01098,0 0.0066,0.027 0.04516,0.045 -0.05684,0.014 -0.08789,0.068 -0.09032,0.09 0.156122,-0.053 0.09485,0.022 0.04516,0.045 0.04858,0 0.08897,0.019 0.09032,0.045 0.01497,0 0.03866,0.033 0,0.045 -0.0022,0 0.004,0.039 0,0.045 0.0072,0 -0.0046,0.041 0,0.045 -0.08747,0.03 -0.03464,0.1041 0,0.1359 -0.002,7e-4 0.0424,0.014 0.04516,0 -0.0084,0.09 0.04516,0.2208 0.04516,0.1806 0.08871,0.084 0.176136,0.1171 0.180634,0.09 0.02958,0 0.141039,0.071 0.135476,0.09 0.04514,0.014 0.07444,0 0.04516,-0.045 0.0042,-0.02 -0.0097,-0.055 0,-0.09 0.01272,-0.048 0.01607,-0.066 0,-0.045 -0.04244,-0.038 0.08587,-0.075 0.04516,-0.09 0.04006,-0.039 0.02247,-0.3081 0.04516,-0.1806 0.124681,-0.045 0.167427,0.042 0.180635,-0.045 3.52e-4,0.069 0.06373,0.014 0.09032,0 0.0064,0 0.04063,0 0.04516,0 0.03445,-0.027 -0.01487,-0.1848 0.04516,-0.1359 0.07386,0.1171 0.333387,0.12 0.406427,0.045 -0.06679,-0.035 -0.100563,-0.071 -0.135476,-0.09 -0.05608,-0.02 -0.07516,-0.078 -0.09032,-0.09 0.0149,0 0.03384,0.029 0.09032,0.045 0.02376,0.022 0.03107,-0.014 0.04516,0 -0.04337,-0.059 -0.08394,-0.1445 -0.09032,-0.1358 -0.04805,-0.045 -0.05874,-0.053 -0.04516,-0.045 -0.07471,-0.052 -0.0069,-0.071 0.09032,0 -0.503631,-0.4665 -1.072016,-0.862 -1.716025,-1.1289 -0.03867,0 -0.236008,-0.039 -0.31611,-0.045 z m -2.619196,0.045 c -0.05805,0.035 -0.103164,0.066 -0.180634,0.09 0.08266,0 -0.436024,0.1185 0.04516,0.09 -0.06329,0.036 -0.540547,0.059 -0.180634,0.1806 -0.12825,0.2039 0.586882,-0.068 0.406427,0 0.06181,-0.017 0.09822,0.091 0.225793,0.09 0.162503,-0.03 0.129551,-0.1228 0.09032,-0.1358 0.0322,-0.02 0.06892,-0.048 0.09032,-0.045 -0.05185,-0.059 -0.08393,-0.087 0,-0.1806 -0.05951,0.04 -0.194185,0.088 -0.180634,0 0.0082,-0.059 0.01776,-0.1739 -0.04516,-0.09 -0.09198,0.024 -0.17661,0.014 -0.225793,0 -0.0104,0 -0.04373,0 -0.04516,0 z m 1.535391,0.09 c -0.107831,0.033 -0.344638,0.2215 -0.09032,0.271 -0.04356,-0.014 -0.07185,-10e-4 -0.09032,0 0.04418,0.037 0.112152,0.1069 0.09032,0.09 0.04681,0.014 0.147535,0.032 0.225793,0.045 0.105317,0.019 0.193436,0.033 0.135476,0.045 0.130201,0.058 0.05777,-0.1893 0.135475,0.045 0.128077,0.02 0.27517,0.1141 0.135476,0.1358 -0.0069,10e-5 -0.01567,0.081 0,0.045 0.0402,0.062 0.150499,0.1579 0.135476,0.09 0.08315,0.065 -0.110548,0.1569 -0.180635,0.1806 0.0177,0.059 -0.03884,0.1113 -0.09032,0.1359 0.06264,-0.014 0.246448,0.246 0.180635,0.1806 -0.02867,0.014 -0.02299,0.022 0,0.045 -0.0098,0 0.02185,0.061 0.04516,0.045 0.097426,0.065 0.245697,0.1257 0.270951,0.1358 0.01,-0.036 -0.04431,-0.1257 -0.09032,-0.1806 0.01185,0 0.02392,-0.014 0.04516,0 0.04767,0.014 0.146999,0.027 0.135476,0.09 0.04169,-0.036 -0.0049,-0.1807 0,-0.1807 -0.1151,-0.1611 -0.108568,-0.098 -0.135476,-0.2257 -0.02711,-0.023 0.167583,-0.014 0.135476,0 0.02048,0.032 0.0404,0.062 0.04516,0.09 -0.01575,0 0.140056,-0.068 0.135475,0.045 0.03637,-0.023 0.03461,-0.061 0.04516,-0.09 0.168702,0 -0.05389,-0.052 0,-0.045 0.01402,-0.1011 -0.11841,-0.053 -0.09032,-0.1358 -0.04477,-0.051 -0.130837,-0.1156 -0.09032,-0.045 -0.01753,0 -0.07007,-0.058 -0.09032,-0.09 0.0078,-0.02 -0.0017,-0.058 0.135476,-0.045 -0.05561,-0.017 -0.08386,-0.032 -0.09032,-0.045 0.01798,-0.016 0.03208,-0.055 -0.09032,-0.045 -0.0299,-0.03 0.01838,-0.038 0.04516,-0.045 -6.12e-4,-0.014 -0.01171,-0.02 -0.04516,-0.045 -0.109146,0.048 -0.0098,-0.017 -0.04516,-0.045 -0.02155,0.014 -0.04663,0.014 -0.04516,0 0.09383,-0.043 0.01718,-0.1055 -0.04516,-0.09 0.02032,-0.019 -0.02958,-0.066 -0.090317,-0.045 -0.106357,-0.024 0.01585,0 -0.09032,-0.09 -0.01676,-0.038 -0.01501,-0.09 -0.04516,-0.09 -0.05507,2e-4 -0.07881,0.043 -0.09032,0.045 -0.01653,-0.046 -0.0349,-0.062 -0.04516,-0.045 0.0046,-0.056 -0.03548,-0.1055 -0.180634,-0.045 -0.07579,0.02 -0.05127,0.1577 -0.09032,0.09 -0.0397,-0.032 -0.06827,-0.027 -0.09032,0 -0.02205,0.028 -0.02562,0.071 0,0.09 -0.08386,0.017 -0.04658,-0.035 0,-0.09 0.06987,-0.084 0.144175,-0.1831 0.04516,-0.1806 -0.02027,4e-4 -0.04897,-0.014 -0.09032,0 z m -2.528879,0.09 c -0.04168,0.016 -0.138857,0.061 -0.225793,0.09 -0.08448,0.02 -0.177462,0.014 -0.135476,0 -0.03442,-0.014 -0.225251,0.104 -0.31611,-0.045 -0.15475,0.014 -0.22998,0 -0.316109,0 -0.01172,0 -0.03348,0 -0.04516,0 -0.51809,0.2744 -0.988949,0.6277 -1.399916,1.0387 -0.05146,0.048 -0.09312,0.1229 -0.135475,0.1807 -0.06051,0.084 -0.07162,0.1445 0,0.09 -0.08021,0.088 -0.106752,0.2593 0.04516,0.1358 -0.127771,0.1948 -0.324817,0.3604 -0.451586,0.4968 0.207116,-0.1689 0.390662,-0.3587 0.587061,-0.5419 0.01575,-0.084 0.1341,-0.1329 0.225793,-0.1806 -0.09124,0.084 -0.180188,0.2231 -0.09032,0.1358 0.0882,-0.035 0.212553,-0.1668 0.270951,-0.2257 -0.0011,0 0.04432,0 0.04516,0 0.01399,-4e-4 0.02171,0 0,0.045 0.04249,0.014 0.1853,0.077 0.225793,0.09 0.04562,-0.023 0.147873,0.085 0.135476,0.1358 0.0124,-0.014 0.03244,-0.022 0.04516,-0.09 0.0099,-0.039 -0.03141,0.2057 0,0.1807 -0.01275,0.029 -0.0353,0.061 -0.04516,0.09 0,0 -0.04516,0.045 -0.04516,0.045 -0.0081,0.019 -0.0064,0.039 0,0.045 0,0 0.04516,-0.045 0.04516,-0.045 -0.0034,0.014 -0.0015,0.035 0,0.045 -0.005,5e-4 -0.02389,0.059 0,0.045 0.0046,0 0.03764,-4e-4 0.04516,0 -0.02653,0.027 -0.01638,0.036 0,0.045 0.01488,0.014 5.5e-5,0.041 -0.04516,0.09 -0.01454,0.014 0.02371,0.025 0,0.045 -0.02886,0.095 0.01342,0.1359 0.04516,0.1359 -0.01798,0.079 -0.01867,0.1579 0,0.1806 -0.0415,0.059 -0.07669,0.1416 -0.04516,0.09 0.07378,-0.014 0.0011,0.1257 -0.04516,0.1806 0.02834,-0.014 0.07674,-0.026 0.180634,-0.09 -0.0082,0.025 0.123813,0.082 0.04516,0.1359 0.03263,0.051 0.02895,0.1286 0,0.1806 -0.01908,0.033 -0.0424,0.038 -0.04516,0.045 -0.05049,-0.2244 -0.182126,0.3601 -0.180634,0.2257 -0.09281,0.2171 -0.184077,0.401 -0.225793,0.6322 -0.08139,0.1739 -0.02076,0.4711 0.04516,0.4065 0.04001,0.1529 0.01708,0.3703 0.180634,0.4064 0.155322,0.152 0.10817,0.4311 0.270952,0.5871 0.02048,0.12 -0.128768,0.1931 0.04516,0.2258 0.113208,0.2501 0.133117,0.4109 0.270951,0.3612 -0.09169,-0.1055 -0.25631,-0.5183 -0.225793,-0.4966 -0.07931,-0.1287 -0.173621,-0.4827 0,-0.3613 0.07233,0.1521 0.132911,0.363 0.270952,0.4967 0.0043,0.1563 0.22556,0.3085 0.270951,0.5419 -0.03782,0.1572 0.02529,0.2692 0.180634,0.3612 0.218358,0.061 0.436111,0.2914 0.677379,0.1807 0.156357,-0.027 0.289166,0.3063 0.496744,0.2709 0.229001,0.023 0.220627,0.081 0.361268,0.271 -0.01156,0.1828 0.112181,-0.048 0.135476,0.1806 0.07209,-0.014 0.307461,0.062 0.361268,0.09 0.008,-0.1884 0.269413,-0.1286 0.225793,0.045 0.0747,0.1574 0.06241,0.3712 -0.09032,0.4967 -0.101184,0.04 -0.200609,0.2345 -0.225793,0.3161 0.227877,-0.024 0.131112,0.3285 0.04516,0.3613 0.205709,0.1171 0.276077,0.371 0.406427,0.5419 0.08621,0.1857 0.388537,0.1857 0.496745,0.3613 0.02814,0.2003 -0.01387,0.35 0,0.5419 -0.08689,0.1501 0.0177,0.3206 -0.04516,0.4516 -0.07473,0.1185 -0.115361,0.3503 0.04516,0.3612 -0.0084,0.039 -0.07266,0.092 -0.09032,0.1359 -0.0056,0.014 0,0.037 0,0.045 -0.112398,0 -0.08498,0.022 -0.04516,0.045 0,0 0.04516,0.045 0.04516,0.045 0.01329,5e-4 0.02896,0.014 0.04516,0 0.01402,0.014 -0.01,0.038 0,0.045 0.136082,-0.014 0.273318,-0.022 0.406427,-0.045 -0.182325,-0.026 0.237626,-0.1416 0,-0.1807 0.0987,-0.026 0.0774,-0.091 0.180634,-0.1358 0.0084,-0.042 0.196108,-0.2228 0.361268,-0.2257 0.411132,-0.071 -0.203677,-0.3353 0.180634,-0.2259 0.116964,0.065 0.29323,-0.1387 0.361268,-0.2257 -0.05939,0.1585 0.281741,-0.3464 0.270952,-0.3613 0.152708,-0.1141 0.609512,-0.2704 0.451585,-0.2709 0.207422,-0.1445 0.281629,-0.4255 0.31611,-0.6775 0.174726,-0.1458 0.295933,-0.4276 0.31611,-0.4967 -0.03568,-0.1242 -0.504442,-0.2372 -0.361268,-0.2258 -0.09757,-0.046 -0.233604,-0.068 -0.270952,0 -0.0094,-0.091 -0.304507,-0.12 -0.225792,-0.09 -0.04999,0.036 -0.06761,0.019 -0.09032,0.045 -0.08046,0.091 -0.03829,0.1402 -0.135475,0.045 0.07592,-0.014 0.116516,-0.022 0.135475,-0.045 0.02843,-0.035 0.0011,-0.084 -0.04516,-0.09 -0.0077,6e-4 -0.04117,0 -0.04516,0 -0.0056,0 -0.0429,0 -0.04516,0 -0.03051,0.014 -0.06114,0.051 -0.09032,0.09 -0.08452,-0.025 -0.05975,-0.4036 0.09032,-0.3162 -0.04208,-0.1644 -0.180697,-0.2458 -0.361269,-0.2709 -0.226956,0.053 -0.267778,-0.088 -0.406428,-0.2258 -0.12468,0.029 -0.226532,-0.1741 -0.225792,-0.1806 -0.170932,0.1199 -0.602057,-0.014 -0.677378,-0.045 -0.07045,0 -0.113251,0.051 -0.09032,0.1806 -0.206379,0.081 0.108481,-0.3398 -0.09032,-0.2257 -0.128959,0.162 -0.280423,0.02 -0.31611,0.2257 -0.133785,0.2002 -0.09785,0.082 -0.31611,0 -0.251648,0.1373 -0.45284,-0.023 -0.406427,-0.1806 0.05422,-0.1344 -0.01026,-0.3454 0,-0.3613 -0.06094,-0.014 -0.195335,-0.087 -0.361269,-0.045 -0.246457,0.08 0.06764,-0.1517 0,-0.2258 -0.01619,-0.075 -0.120895,-0.3133 0.04516,-0.3161 -0.247612,-0.039 -0.264447,0.1746 -0.361268,0.3161 -0.0863,-0.074 -0.302964,0.075 -0.406427,-0.09 -0.179455,-0.1674 -0.16357,-0.4262 -0.09032,-0.6322 0.0687,-0.079 -0.0041,-0.3479 0.180634,-0.3613 0.172498,-0.097 0.118395,-0.1272 0.361268,-0.09 0.05499,0.014 0.126242,-0.1012 0.225793,0 0.0094,-0.1448 0.439329,-0.085 0.31611,-0.09 0.08587,0.1098 0.246796,0.014 0.270952,0.2259 -0.01344,0.075 0.142137,0.2426 0.180634,0.316 0.169985,-0.2103 -0.187016,-0.5442 0.09032,-0.7225 0.159459,-0.107 0.428687,-0.2989 0.406427,-0.3161 0.01301,0 0.026,-0.042 0.04516,-0.045 -0.01344,-0.014 -0.01026,-0.03 -0.04516,-0.045 0.08519,-0.064 0.01448,-0.2354 0,-0.2709 0.0055,0 0.101155,-0.1952 0.09032,0.045 0.03461,0.2464 0.06759,-0.1026 0.09032,-0.1807 0.0452,-0.03 0.08222,-0.074 0.135475,-0.1358 0.0077,-0.014 0.03254,0 0.04516,0 0.04512,-0.043 0.102095,-0.1084 0.180635,-0.09 0.166978,-0.014 0.07412,-0.014 0.09032,-0.1806 0.113308,-0.133 0.258747,-0.1768 0.31611,-0.1807 -0.0461,-0.072 0.156313,-0.014 0.225792,-0.045 -0.07598,0.039 -0.223603,0.1755 -0.04516,0.2259 0.03367,-0.1416 0.343512,-0.1402 0.31611,-0.2259 -0.0039,-0.014 -0.02468,0.019 -0.04516,0 -0.210821,0.091 -0.329963,-0.2102 -0.270952,-0.2257 -0.212243,-0.046 0.384506,-0.1315 0,-0.1806 -0.317741,0.091 -0.597593,0.3519 -0.225793,0 0.177503,-0.055 0.196233,-0.2214 0.406428,-0.1358 0.136068,0.02 0.347227,0.1156 0.451585,-0.045 0.104349,0.029 0.233393,-0.082 0.180635,-0.1359 0.05896,-0.08 -0.02912,-0.1657 -0.04516,-0.1358 -0.01055,-0.074 -0.115635,-0.035 -0.180634,0 0.0053,-0.014 -0.01857,-0.025 0,-0.045 0.05017,-0.03 0.248185,-0.045 0.04516,-0.1359 -0.06626,0.025 -0.157196,-0.052 -0.09032,-0.045 -0.132657,-0.084 -0.07231,-0.2902 -0.09032,-0.2258 0.04756,-0.069 0.08129,-0.1875 0,-0.1358 -0.116054,0.016 0.0048,-0.069 -0.09032,-0.1806 -0.0026,-0.03 -0.03958,-0.036 -0.04516,-0.045 -0.02613,0.046 -0.09116,0.1199 -0.09032,0.09 -0.0039,0.071 -0.174478,0.1098 -0.180634,0.09 -0.07276,0.03 0.034436,-0.071 -0.135476,-0.09 -0.01477,-0.026 -0.01754,-0.1055 -0.04516,-0.1359 0.15668,0.065 0.206565,-0.1513 0.04516,-0.1358 -0.05439,-0.042 -0.357893,-0.1402 -0.225793,-0.1807 -0.200677,-0.1069 -0.247223,-0.014 -0.31611,0.1359 0.06246,0 -0.06841,0.1228 0,0.1358 -0.09434,0.1315 -0.02214,0.3989 0,0.4516 -0.0052,0.1041 -0.239914,0.361 -0.316109,0.2257 -0.04092,0.1041 -0.103554,0.3613 -0.04516,0.271 0.03178,0.1185 -0.08633,0.03 -0.135476,0.045 -0.119681,-0.1 -0.109262,-0.2182 -0.04516,-0.4065 -0.03478,-0.1704 -0.223877,-0.029 -0.31611,-0.2257 -0.07438,-0.097 -0.278593,-0.1869 -0.361269,-0.1807 0.0474,-0.2799 -0.188827,-0.027 -0.09032,-0.2258 0.03785,-0.1539 0.16659,-0.2857 0.270952,-0.3613 0.07663,-0.055 0.137267,-0.014 0.09032,-0.1358 0.182851,0.1758 0.08571,-0.023 0.09032,-0.045 0.168566,0.097 0.129536,-0.09 0.270951,0 0.06816,-0.014 0.115606,-0.027 0.135476,-0.045 0.03516,-0.033 -0.0032,-0.098 -0.04516,-0.1359 0.178419,0.092 0.196885,-0.2188 0.31611,-0.09 0.0051,0 0.02697,-0.042 0.04516,0 0.17381,0.029 0.142296,-0.2815 0.180634,-0.1806 0.01484,0 -0.0064,-0.043 0,-0.045 -0.03571,-0.032 -0.07068,-0.065 -0.09032,-0.09 -0.06392,0.051 -0.170448,0.1286 -0.225793,0.1806 -0.03445,0.017 -0.054,0.058 -0.04516,0.045 -0.08305,-0.014 0.07733,-0.3585 -0.09032,-0.2257 -0.03918,0.032 -0.06835,0.045 -0.09032,0.045 -0.0104,-0.035 -0.009,-0.1127 0.04516,-0.1358 -0.11984,-0.059 0.102268,-0.061 0,-0.2259 -0.06704,-0.068 -0.211871,0.1629 -0.180634,0.09 -0.20411,0.072 0.216982,0.151 -0.04516,0.1806 0.186072,0.035 -0.11247,0.2885 -0.135476,0.1807 -0.09621,0.092 0.08105,-0.2178 0,-0.1359 -0.02632,0 -0.09958,0 -0.135476,0 -0.0012,0 -0.02827,0.02 0,0.045 0.0055,0.038 -0.330384,-0.037 -0.406427,-0.045 -0.05374,-0.052 -0.06724,-0.093 -0.135475,-0.09 -0.124204,0 -0.150668,0.1496 -0.180634,0.1807 -0.111517,0.1214 -0.13773,-0.097 -0.04516,-0.09 -0.134609,-0.023 -0.225598,-0.061 -0.270952,-0.09 -0.0033,-0.017 -0.02208,-0.075 -0.04516,-0.09 -0.114594,-0.1513 -0.229456,-0.2437 -0.31611,-0.1358 -0.159354,0.1621 -0.08913,-0.049 -0.135475,-0.045 -0.0085,5e-4 -0.02415,-0.019 -0.04516,0 z m 1.716025,0.3613 0.04516,0 c 0.08851,0.022 0.01697,-0.1791 -0.04516,-0.1807 -0.01011,-2e-4 -0.03498,0.035 -0.04516,0.045 -0.11364,0.051 -0.160962,0.023 0,0.09 l 0.04516,0.045 z m 0.361269,0.5419 c -0.0079,0.014 -0.0117,0.072 0,0.045 0.0048,0.035 0.08076,0.1112 0.09032,0.09 0.15424,-0.195 0.164664,0.046 0.31611,0 -0.03415,-0.04 -0.227202,-0.261 -0.225793,-0.271 -0.05786,-3e-4 -0.156921,0.1055 -0.180634,0.1359 z m 1.399914,2.3933 c 0.0016,0.014 0.01286,0 0.04516,0 0.02961,-0.048 0.103626,0.014 0.04516,-0.1358 -0.0038,0.014 -0.09519,0.098 -0.09032,0.1358 z m -5.102916,-0.7676 c 0.02219,0.046 0.01172,0.1141 0,0.09 0.06356,0.033 0.08657,0.1257 0.180634,0.09 0.02836,-0.081 -0.112878,-0.1272 -0.180634,-0.1807 z m 4.651331,-1.9419 c -0.06072,-10e-5 -0.231662,0.094 -0.04516,0.09 0.06634,-0.065 0.07481,-0.09 0.04516,-0.09 z m 1.309598,0.09 c -0.05374,-2e-4 -0.06829,0.1402 0.09032,0.1358 -0.04105,-0.09 -0.06407,-0.1358 -0.09032,-0.1358 z m 1.535391,0.9484 c 0.02032,0.016 0.02788,0.074 0.04516,0.09 -0.03007,-0.041 -0.02595,-0.091 -0.04516,-0.09 z m 0.04516,0.09 c 0.07977,0.068 -0.03724,0.1199 0.135475,0.1806 l 0.04516,0.045 c 0.104508,0.014 0.05055,-0.1823 0.04516,-0.2257 -0.08876,-0.014 -0.177523,0.071 -0.180634,0 -0.01127,-0.019 -0.03513,0.014 -0.04516,0 z m -3.612685,0.1806 c -0.02996,0 -0.110215,0.1185 0,0.09 0.03486,-0.04 0.01272,-0.091 0,-0.09 z m -0.316109,0.4064 c -0.04649,4e-4 -0.0422,0.065 0.09032,0.045 -0.01562,-0.035 -0.07069,-0.045 -0.09032,-0.045 z m 4.922282,0.3162 c 0.02285,0.065 0.03779,0.117 0.09032,0.2257 0.01546,0 0.02498,0.026 0.04516,0.045 -0.04052,-0.092 -0.09033,-0.1807 -0.135475,-0.271 z m -0.180634,0.045 c -0.0026,0.088 0.04016,0.2547 0.09032,0.3612 0.0082,0.017 -0.0074,0.03 0,0.045 -0.0045,6e-4 -0.01373,0.049 0,0.045 0.003,0 0.04264,0 0.04516,0 -0.04351,0.1471 0.05649,0.1713 0,0.2259 0.201321,0.042 0.08532,-0.2345 0.04516,-0.3162 -0.05098,-0.1669 -0.167239,-0.3111 -0.180635,-0.3613 z m -3.386892,0.1358 c -0.05487,10e-5 -0.03402,0.081 0.180634,0.1358 -0.05527,-0.082 -0.140591,-0.1358 -0.180634,-0.1358 z m 0.541903,0 c -0.04708,0.08 -0.09808,0.1676 -0.180635,0.1806 -0.05662,0.074 0.103049,0.181 0.270952,0.1359 -0.0013,0.042 -0.06347,0.117 0.09032,0.045 0.01597,-0.038 -0.0059,-0.046 0,-0.045 0,0 0.04516,0.045 0.04516,0.045 0.0055,0.04 0.01156,0.097 0.04516,0.09 0.121487,-0.1185 -0.04139,-0.094 -0.04516,-0.1359 -0.0013,-0.014 0.0012,-0.055 0.04516,-0.09 -0.145799,0.081 -0.211123,-0.059 -0.09032,-0.09 -0.19025,-0.016 -0.02279,-0.03 -0.09032,-0.09 -0.103309,0.062 -0.115679,0.014 -0.09032,-0.045 z m 2.79983,0.09 c -0.01468,9e-4 -0.03501,0.014 -0.04516,0.045 -0.01171,0.058 0.02377,0.2852 0.04516,0.2259 0.01494,0.014 0.01387,0.062 0.04516,0.045 0.141545,-0.022 0.02559,-0.3205 -0.04516,-0.316 z m 0.406427,0.1358 c 0.01685,0.1416 -0.002,0.3213 0,0.3613 -0.05686,0.077 -0.144873,0.1199 -0.180634,0.1358 0.07341,0.08 -0.01626,0.3265 0.04516,0.4064 -0.122759,-0.016 -0.140562,0.2322 -0.135475,0.3162 -0.01455,0.2338 0.150043,0.3205 0.180634,0.316 0.165256,0 0.194273,-0.4905 0.180634,-0.3613 0.02171,-0.2263 0.177348,-0.2855 0.225793,0 -0.07153,-0.4133 -0.162611,-0.7953 -0.31611,-1.1741 z m 0,1.5354 c -0.07381,0.019 -0.108785,0.056 -0.04516,0.09 -0.155097,-0.022 -0.26964,0.6838 -0.270952,0.5419 -0.174871,0.1601 -0.273942,0.3996 -0.31611,0.6322 0.09247,0.1928 0.04996,0.7639 0,0.6775 0.04069,0.117 0.14247,0.4104 0.135476,0.2709 0.05247,0.159 0.220336,0.3128 0.361268,0.1359 0.196646,-0.1599 0.3696,-0.1979 0.225793,0.1358 0.200782,-0.5907 0.361269,-1.193 0.361269,-1.8516 0,-0.063 -0.04318,-0.1185 -0.04516,-0.1806 -0.126574,-0.1431 -0.353445,-0.4402 -0.180634,-0.4516 -0.06779,-0.02 -0.151984,-0.019 -0.225793,0 z m -5.735136,1.1291 c -0.07149,-6e-4 -0.109219,0.043 -0.180635,0.089 -0.04014,0.049 0.02093,0.055 0.09032,0.045 0,0 0.04516,0 0.04516,0 0.04747,-0.014 0.08867,-0.036 0.09032,-0.045 0.009,0.014 0.613981,0.2571 0.361269,0.1807 0.02809,0.02 0.04955,0.032 0.04516,0.045 0.0053,0.014 0.03601,0.049 0.180634,0.045 0.208289,-0.065 -0.190365,-0.1866 -0.180634,-0.1807 -0.01957,-0.014 -0.02504,-0.035 -0.04516,-0.045 -0.02554,-0.038 -0.03158,-0.045 -0.04516,-0.045 -0.105924,-0.053 -0.248041,-0.089 -0.361268,-0.089 z m -5.148076,0.089 c -0.01985,0 -0.05147,0.056 0,0.09 0.0185,-0.063 0.01358,-0.091 0,-0.09 z m 6.006088,0.2258 c -0.03209,5e-4 -0.05499,0.033 -0.04516,0.045 0.02298,0.016 -0.01,0.033 0,0.045 -0.0094,-2e-4 -0.01896,0.059 0,0.045 -0.02114,0 -0.02792,0.043 -0.04516,0.045 0.12221,-0.067 0.110953,0.078 0.180635,0.045 0.02858,-0.095 0.375135,-0.032 0.270951,-0.1359 -0.02182,-0.051 -0.264998,-0.092 -0.361268,-0.09 z m 0.587062,0.1358 c -0.05835,0 -0.187045,0.1171 0,0.09 0.01783,-0.039 0.02464,-0.091 0,-0.09 z m -1.083806,0.045 c 0.0097,0.014 0.01912,0.032 0.04516,0.045 l 0.04516,0 c 0.172535,-0.016 -0.01402,-0.046 -0.09032,-0.045 z m -1.219281,1.6257 c -0.0163,0 -0.0011,0.1185 0.04516,0.09 -0.0078,-0.061 -0.03802,-0.09 -0.04516,-0.09 z"
         id="path3800-3-8-0"
         inkscape:connector-curvature="0" />
      <circle
         transform="matrix(0.02626348,0,0,0.02626348,32.157999,1031.0319)"
         id="path3800-3-8-1"
         style="display:inline;fill:none;stroke:url(#linearGradient7576);stroke-width:28.7850132;stroke-miterlimit:4;stroke-dasharray:none;stroke-opacity:1"
         cx="-902.85712"
         cy="526.64789"
         r="232.85715" />
      <circle
         id="path3800-3-8-9"
         style="display:inline;fill:url(#radialGradient7574);fill-opacity:1;stroke:none;opacity:0.17"
         cx="-902.85712"
         cy="526.64789"
         r="232.85715"
         transform="matrix(0.02510115,0,0,0.02510115,31.108576,1031.644)" />
    </g>
  </g>
</svg>
